<svg xmlns="http://www.w3.org/2000/svg" xmlns:xlink="http://www.w3.org/1999/xlink" version="1.1" class="marks" width="988" height="381" viewBox="0 0 988 381"><rect width="988" height="381" fill="white"/><g fill="none" stroke-miterlimit="10" transform="translate(145,43)"><g class="mark-group role-frame root" role="graphics-object" aria-roledescription="group mark container"><g transform="translate(0,0)"><path class="background" aria-hidden="true" d="M0,0h0v0h0Z"/><g><g class="mark-group role-row-header row_header" role="graphics-object" aria-roledescription="group mark container"><g transform="translate(-2,0)"><path class="background" aria-hidden="true" d="M0,0h0v300h0Z"/><g><g class="mark-group role-axis" role="graphics-symbol" aria-roledescription="axis" aria-label="Y-axis titled 'Commodity' for a discrete scale with 9 values: Bovine animals, live, Bulk grains, Cereal and bakery foods, Fresh or chilled fruit, Fresh or chilled red meats, ending with Wheat and products"><g transform="translate(0.5,0.5)"><path class="background" aria-hidden="true" d="M0,0h0v0h0Z" pointer-events="none"/><g><g class="mark-rule role-axis-tick" pointer-events="none"><line transform="translate(0,17)" x2="-5" y2="0" stroke="#888" stroke-width="1" opacity="1"/><line transform="translate(0,50)" x2="-5" y2="0" stroke="#888" stroke-width="1" opacity="1"/><line transform="translate(0,83)" x2="-5" y2="0" stroke="#888" stroke-width="1" opacity="1"/><line transform="translate(0,117)" x2="-5" y2="0" stroke="#888" stroke-width="1" opacity="1"/><line transform="translate(0,150)" x2="-5" y2="0" stroke="#888" stroke-width="1" opacity="1"/><line transform="translate(0,183)" x2="-5" y2="0" stroke="#888" stroke-width="1" opacity="1"/><line transform="translate(0,217)" x2="-5" y2="0" stroke="#888" stroke-width="1" opacity="1"/><line transform="translate(0,250)" x2="-5" y2="0" stroke="#888" stroke-width="1" opacity="1"/><line transform="translate(0,283)" x2="-5" y2="0" stroke="#888" stroke-width="1" opacity="1"/></g><g class="mark-text role-axis-label" pointer-events="none"><text text-anchor="end" transform="translate(-7,19.666666666666657)" font-family="sans-serif" font-size="10px" fill="#000" opacity="1">Bovine animals, live</text><text text-anchor="end" transform="translate(-7,52.99999999999999)" font-family="sans-serif" font-size="10px" fill="#000" opacity="1">Bulk grains</text><text text-anchor="end" transform="translate(-7,86.33333333333333)" font-family="sans-serif" font-size="10px" fill="#000" opacity="1">Cereal and bakery foods</text><text text-anchor="end" transform="translate(-7,119.66666666666666)" font-family="sans-serif" font-size="10px" fill="#000" opacity="1">Fresh or chilled fruit</text><text text-anchor="end" transform="translate(-7,153)" font-family="sans-serif" font-size="10px" fill="#000" opacity="1">Fresh or chilled red meats</text><text text-anchor="end" transform="translate(-7,186.33333333333334)" font-family="sans-serif" font-size="10px" fill="#000" opacity="1">Liquors and liqueurs</text><text text-anchor="end" transform="translate(-7,219.66666666666666)" font-family="sans-serif" font-size="10px" fill="#000" opacity="1">Malt beer</text><text text-anchor="end" transform="translate(-7,253)" font-family="sans-serif" font-size="10px" fill="#000" opacity="1">Refined vegetable oils</text><text text-anchor="end" transform="translate(-7,286.33333333333337)" font-family="sans-serif" font-size="10px" fill="#000" opacity="1">Wheat and products</text></g><g class="mark-rule role-axis-domain" pointer-events="none"><line transform="translate(0,0)" x2="0" y2="300" stroke="#888" stroke-width="1" opacity="1"/></g><g class="mark-text role-axis-title" pointer-events="none"><text text-anchor="middle" transform="translate(-126.6005859375,150) rotate(-90) translate(0,-2)" font-family="sans-serif" font-size="11px" font-weight="bold" fill="#000" opacity="1">Commodity</text></g></g><path class="foreground" aria-hidden="true" d="" pointer-events="none" display="none"/></g></g></g><path class="foreground" aria-hidden="true" d="" display="none"/></g></g><g class="mark-group role-column-header column_header" role="graphics-object" aria-roledescription="group mark container"><g transform="translate(0,-1)"><path class="background" aria-hidden="true" d="M0,0h350v0h-350Z"/><g><g class="mark-group role-title"><g transform="translate(175,-20)"><path class="background" aria-hidden="true" d="M0,0h0v0h0Z" pointer-events="none"/><g><g class="mark-text role-title-text" role="graphics-symbol" aria-roledescription="title" aria-label="Title text 'CANADA'" pointer-events="none"><text text-anchor="middle" transform="translate(0,8)" font-family="sans-serif" font-size="10px" fill="#000" opacity="1">CANADA</text></g></g><path class="foreground" aria-hidden="true" d="" pointer-events="none" display="none"/></g></g></g><path class="foreground" aria-hidden="true" d="" display="none"/></g><g transform="translate(377,-1)"><path class="background" aria-hidden="true" d="M0,0h350v0h-350Z"/><g><g class="mark-group role-title"><g transform="translate(175,-20)"><path class="background" aria-hidden="true" d="M0,0h0v0h0Z" pointer-events="none"/><g><g class="mark-text role-title-text" role="graphics-symbol" aria-roledescription="title" aria-label="Title text 'MEXICO'" pointer-events="none"><text text-anchor="middle" transform="translate(0,8)" font-family="sans-serif" font-size="10px" fill="#000" opacity="1">MEXICO</text></g></g><path class="foreground" aria-hidden="true" d="" pointer-events="none" display="none"/></g></g></g><path class="foreground" aria-hidden="true" d="" display="none"/></g></g><g class="mark-group role-column-footer column_footer" role="graphics-object" aria-roledescription="group mark container"><g transform="translate(0,301)"><path class="background" aria-hidden="true" d="M0,0h350v0h-350Z"/><g><g class="mark-group role-axis" role="graphics-symbol" aria-roledescription="axis" aria-label="X-axis titled 'Import Value ($B)' for a linear scale with values from 0 to 65"><g transform="translate(0.5,0.5)"><path class="background" aria-hidden="true" d="M0,0h0v0h0Z" pointer-events="none"/><g><g class="mark-rule role-axis-tick" pointer-events="none"><line transform="translate(0,0)" x2="0" y2="5" stroke="#888" stroke-width="1" opacity="1"/><line transform="translate(54,0)" x2="0" y2="5" stroke="#888" stroke-width="1" opacity="1"/><line transform="translate(108,0)" x2="0" y2="5" stroke="#888" stroke-width="1" opacity="1"/><line transform="translate(162,0)" x2="0" y2="5" stroke="#888" stroke-width="1" opacity="1"/><line transform="translate(215,0)" x2="0" y2="5" stroke="#888" stroke-width="1" opacity="1"/><line transform="translate(269,0)" x2="0" y2="5" stroke="#888" stroke-width="1" opacity="1"/><line transform="translate(323,0)" x2="0" y2="5" stroke="#888" stroke-width="1" opacity="1"/></g><g class="mark-text role-axis-label" pointer-events="none"><text text-anchor="start" transform="translate(0,15)" font-family="sans-serif" font-size="10px" fill="#000" opacity="1">0</text><text text-anchor="middle" transform="translate(53.84615384615385,15)" font-family="sans-serif" font-size="10px" fill="#000" opacity="1">10</text><text text-anchor="middle" transform="translate(107.6923076923077,15)" font-family="sans-serif" font-size="10px" fill="#000" opacity="1">20</text><text text-anchor="middle" transform="translate(161.53846153846155,15)" font-family="sans-serif" font-size="10px" fill="#000" opacity="1">30</text><text text-anchor="middle" transform="translate(215.3846153846154,15)" font-family="sans-serif" font-size="10px" fill="#000" opacity="1">40</text><text text-anchor="middle" transform="translate(269.2307692307692,15)" font-family="sans-serif" font-size="10px" fill="#000" opacity="1">50</text><text text-anchor="middle" transform="translate(323.0769230769231,15)" font-family="sans-serif" font-size="10px" fill="#000" opacity="1">60</text></g><g class="mark-rule role-axis-domain" pointer-events="none"><line transform="translate(0,0)" x2="350" y2="0" stroke="#888" stroke-width="1" opacity="1"/></g><g class="mark-text role-axis-title" pointer-events="none"><text text-anchor="middle" transform="translate(175,30)" font-family="sans-serif" font-size="11px" font-weight="bold" fill="#000" opacity="1">Import Value ($B)</text></g></g><path class="foreground" aria-hidden="true" d="" pointer-events="none" display="none"/></g></g></g><path class="foreground" aria-hidden="true" d="" display="none"/></g><g transform="translate(377,301)"><path class="background" aria-hidden="true" d="M0,0h350v0h-350Z"/><g><g class="mark-group role-axis" role="graphics-symbol" aria-roledescription="axis" aria-label="X-axis titled 'Import Value ($B)' for a linear scale with values from 0 to 65"><g transform="translate(0.5,0.5)"><path class="background" aria-hidden="true" d="M0,0h0v0h0Z" pointer-events="none"/><g><g class="mark-rule role-axis-tick" pointer-events="none"><line transform="translate(0,0)" x2="0" y2="5" stroke="#888" stroke-width="1" opacity="1"/><line transform="translate(54,0)" x2="0" y2="5" stroke="#888" stroke-width="1" opacity="1"/><line transform="translate(108,0)" x2="0" y2="5" stroke="#888" stroke-width="1" opacity="1"/><line transform="translate(162,0)" x2="0" y2="5" stroke="#888" stroke-width="1" opacity="1"/><line transform="translate(215,0)" x2="0" y2="5" stroke="#888" stroke-width="1" opacity="1"/><line transform="translate(269,0)" x2="0" y2="5" stroke="#888" stroke-width="1" opacity="1"/><line transform="translate(323,0)" x2="0" y2="5" stroke="#888" stroke-width="1" opacity="1"/></g><g class="mark-text role-axis-label" pointer-events="none"><text text-anchor="start" transform="translate(0,15)" font-family="sans-serif" font-size="10px" fill="#000" opacity="1">0</text><text text-anchor="middle" transform="translate(53.84615384615385,15)" font-family="sans-serif" font-size="10px" fill="#000" opacity="1">10</text><text text-anchor="middle" transform="translate(107.6923076923077,15)" font-family="sans-serif" font-size="10px" fill="#000" opacity="1">20</text><text text-anchor="middle" transform="translate(161.53846153846155,15)" font-family="sans-serif" font-size="10px" fill="#000" opacity="1">30</text><text text-anchor="middle" transform="translate(215.3846153846154,15)" font-family="sans-serif" font-size="10px" fill="#000" opacity="1">40</text><text text-anchor="middle" transform="translate(269.2307692307692,15)" font-family="sans-serif" font-size="10px" fill="#000" opacity="1">50</text><text text-anchor="middle" transform="translate(323.0769230769231,15)" font-family="sans-serif" font-size="10px" fill="#000" opacity="1">60</text></g><g class="mark-rule role-axis-domain" pointer-events="none"><line transform="translate(0,0)" x2="350" y2="0" stroke="#888" stroke-width="1" opacity="1"/></g><g class="mark-text role-axis-title" pointer-events="none"><text text-anchor="middle" transform="translate(175,30)" font-family="sans-serif" font-size="11px" font-weight="bold" fill="#000" opacity="1">Import Value ($B)</text></g></g><path class="foreground" aria-hidden="true" d="" pointer-events="none" display="none"/></g></g></g><path class="foreground" aria-hidden="true" d="" display="none"/></g></g><g class="mark-group role-scope cell" role="graphics-object" aria-roledescription="group mark container"><g transform="translate(0,0)"><path class="background" aria-hidden="true" d="M0.5,0.5h350v300h-350Z" stroke="#ddd"/><g><g class="mark-group role-axis" aria-hidden="true"><g transform="translate(0.5,300.5)"><path class="background" aria-hidden="true" d="M0,0h0v0h0Z" pointer-events="none"/><g><g class="mark-rule role-axis-grid" pointer-events="none"><line transform="translate(0,0)" x2="0" y2="-300" stroke="#ddd" stroke-width="1" opacity="1"/><line transform="translate(54,0)" x2="0" y2="-300" stroke="#ddd" stroke-width="1" opacity="1"/><line transform="translate(108,0)" x2="0" y2="-300" stroke="#ddd" stroke-width="1" opacity="1"/><line transform="translate(162,0)" x2="0" y2="-300" stroke="#ddd" stroke-width="1" opacity="1"/><line transform="translate(215,0)" x2="0" y2="-300" stroke="#ddd" stroke-width="1" opacity="1"/><line transform="translate(269,0)" x2="0" y2="-300" stroke="#ddd" stroke-width="1" opacity="1"/><line transform="translate(323,0)" x2="0" y2="-300" stroke="#ddd" stroke-width="1" opacity="1"/></g></g><path class="foreground" aria-hidden="true" d="" pointer-events="none" display="none"/></g></g><g class="mark-group role-scope child_layer_0_pathgroup" role="graphics-object" aria-roledescription="group mark container"><g transform="translate(0,0)"><path class="background" aria-hidden="true" d="M0,0h350v300h-350Z"/><g><g class="mark-line role-mark child_layer_0_marks" role="graphics-object" aria-roledescription="line mark container"><path aria-label="Import Value ($B): 11.7716; Commodity: Refined vegetable oils; Direction: Increase; Country: CANADA" role="graphics-symbol" aria-roledescription="line mark" d="M63.386,250L96.714,250" stroke="#08ec08df" stroke-width="3"/></g></g><path class="foreground" aria-hidden="true" d="" display="none"/></g><g transform="translate(0,0)"><path class="background" aria-hidden="true" d="M0,0h350v300h-350Z"/><g><g class="mark-line role-mark child_layer_0_marks" role="graphics-object" aria-roledescription="line mark container"><path aria-label="Import Value ($B): 11.8126; Commodity: Wheat and products; Direction: Decrease; Country: CANADA" role="graphics-symbol" aria-roledescription="line mark" d="M63.606,283.333L38.84,283.333" stroke="#e40d0d" stroke-width="3"/></g></g><path class="foreground" aria-hidden="true" d="" display="none"/></g><g transform="translate(0,0)"><path class="background" aria-hidden="true" d="M0,0h350v300h-350Z"/><g><g class="mark-line role-mark child_layer_0_marks" role="graphics-object" aria-roledescription="line mark container"><path aria-label="Import Value ($B): 2.6015; Commodity: Fresh or chilled fruit; Direction: Decrease; Country: CANADA" role="graphics-symbol" aria-roledescription="line mark" d="M14.008,116.667L10.388,116.667" stroke="#e40d0d" stroke-width="3"/></g></g><path class="foreground" aria-hidden="true" d="" display="none"/></g><g transform="translate(0,0)"><path class="background" aria-hidden="true" d="M0,0h350v300h-350Z"/><g><g class="mark-line role-mark child_layer_0_marks" role="graphics-object" aria-roledescription="line mark container"><path aria-label="Import Value ($B): 3.7018; Commodity: Malt beer; Direction: Decrease; Country: CANADA" role="graphics-symbol" aria-roledescription="line mark" d="M19.933,216.667L4.286,216.667" stroke="#e40d0d" stroke-width="3"/></g></g><path class="foreground" aria-hidden="true" d="" display="none"/></g><g transform="translate(0,0)"><path class="background" aria-hidden="true" d="M0,0h350v300h-350Z"/><g><g class="mark-line role-mark child_layer_0_marks" role="graphics-object" aria-roledescription="line mark container"><path aria-label="Import Value ($B): 28.2761; Commodity: Fresh or chilled red meats; Direction: Decrease; Country: CANADA" role="graphics-symbol" aria-roledescription="line mark" d="M152.256,150L114.881,150" stroke="#e40d0d" stroke-width="3"/></g></g><path class="foreground" aria-hidden="true" d="" display="none"/></g><g transform="translate(0,0)"><path class="background" aria-hidden="true" d="M0,0h350v300h-350Z"/><g><g class="mark-line role-mark child_layer_0_marks" role="graphics-object" aria-roledescription="line mark container"><path aria-label="Import Value ($B): 17.4636; Commodity: Bovine animals, live; Direction: Decrease; Country: CANADA" role="graphics-symbol" aria-roledescription="line mark" d="M94.035,16.667L45.465,16.667" stroke="#e40d0d" stroke-width="3"/></g></g><path class="foreground" aria-hidden="true" d="" display="none"/></g><g transform="translate(0,0)"><path class="background" aria-hidden="true" d="M0,0h350v300h-350Z"/><g><g class="mark-line role-mark child_layer_0_marks" role="graphics-object" aria-roledescription="line mark container"><path aria-label="Import Value ($B): 33.6243; Commodity: Cereal and bakery foods; Direction: Increase; Country: CANADA" role="graphics-symbol" aria-roledescription="line mark" d="M181.054,83.333L204.833,83.333" stroke="#08ec08df" stroke-width="3"/></g></g><path class="foreground" aria-hidden="true" d="" display="none"/></g><g transform="translate(0,0)"><path class="background" aria-hidden="true" d="M0,0h350v300h-350Z"/><g><g class="mark-line role-mark child_layer_0_marks" role="graphics-object" aria-roledescription="line mark container"><path aria-label="Import Value ($B): 17.2928; Commodity: Bulk grains; Direction: Decrease; Country: CANADA" role="graphics-symbol" aria-roledescription="line mark" d="M93.115,50L50.346,50" stroke="#e40d0d" stroke-width="3"/></g></g><path class="foreground" aria-hidden="true" d="" display="none"/></g><g transform="translate(0,0)"><path class="background" aria-hidden="true" d="M0,0h350v300h-350Z"/><g><g class="mark-line role-mark child_layer_0_marks" role="graphics-object" aria-roledescription="line mark container"><path aria-label="Import Value ($B): 6.0599; Commodity: Liquors and liqueurs; Direction: Decrease; Country: CANADA" role="graphics-symbol" aria-roledescription="line mark" d="M32.63,183.333L20.307,183.333" stroke="#e40d0d" stroke-width="3"/></g></g><path class="foreground" aria-hidden="true" d="" display="none"/></g></g><g class="mark-symbol role-mark child_layer_1_marks" role="graphics-object" aria-roledescription="symbol mark container"><path aria-label="Import Value ($B): 11.7716; Commodity: Refined vegetable oils; Period: Before_2016" role="graphics-symbol" aria-roledescription="point" transform="translate(63.38553846153846,250)" d="M4.743,0A4.743,4.743,0,1,1,-4.743,0A4.743,4.743,0,1,1,4.743,0" fill="#9dbee8" stroke="black" stroke-width="0.3" opacity="0.7"/><path aria-label="Import Value ($B): 17.9611; Commodity: Refined vegetable oils; Period: After_2016" role="graphics-symbol" aria-roledescription="point" transform="translate(96.71361538461537,250)" d="M4.743,0A4.743,4.743,0,1,1,-4.743,0A4.743,4.743,0,1,1,4.743,0" fill="#dae39f" stroke="black" stroke-width="0.3" opacity="0.7"/><path aria-label="Import Value ($B): 11.8126; Commodity: Wheat and products; Period: Before_2016" role="graphics-symbol" aria-roledescription="point" transform="translate(63.6063076923077,283.33333333333337)" d="M4.743,0A4.743,4.743,0,1,1,-4.743,0A4.743,4.743,0,1,1,4.743,0" fill="#9dbee8" stroke="black" stroke-width="0.3" opacity="0.7"/><path aria-label="Import Value ($B): 7.2131; Commodity: Wheat and products; Period: After_2016" role="graphics-symbol" aria-roledescription="point" transform="translate(38.839769230769235,283.33333333333337)" d="M4.743,0A4.743,4.743,0,1,1,-4.743,0A4.743,4.743,0,1,1,4.743,0" fill="#dae39f" stroke="black" stroke-width="0.3" opacity="0.7"/><path aria-label="Import Value ($B): 2.6015; Commodity: Fresh or chilled fruit; Period: Before_2016" role="graphics-symbol" aria-roledescription="point" transform="translate(14.008076923076919,116.66666666666666)" d="M4.743,0A4.743,4.743,0,1,1,-4.743,0A4.743,4.743,0,1,1,4.743,0" fill="#9dbee8" stroke="black" stroke-width="0.3" opacity="0.7"/><path aria-label="Import Value ($B): 1.9292; Commodity: Fresh or chilled fruit; Period: After_2016" role="graphics-symbol" aria-roledescription="point" transform="translate(10.388000000000002,116.66666666666666)" d="M4.743,0A4.743,4.743,0,1,1,-4.743,0A4.743,4.743,0,1,1,4.743,0" fill="#dae39f" stroke="black" stroke-width="0.3" opacity="0.7"/><path aria-label="Import Value ($B): 3.7018; Commodity: Malt beer; Period: Before_2016" role="graphics-symbol" aria-roledescription="point" transform="translate(19.93276923076923,216.66666666666666)" d="M4.743,0A4.743,4.743,0,1,1,-4.743,0A4.743,4.743,0,1,1,4.743,0" fill="#9dbee8" stroke="black" stroke-width="0.3" opacity="0.7"/><path aria-label="Import Value ($B): 0.7959; Commodity: Malt beer; Period: After_2016" role="graphics-symbol" aria-roledescription="point" transform="translate(4.285615384615384,216.66666666666666)" d="M4.743,0A4.743,4.743,0,1,1,-4.743,0A4.743,4.743,0,1,1,4.743,0" fill="#dae39f" stroke="black" stroke-width="0.3" opacity="0.7"/><path aria-label="Import Value ($B): 28.2761; Commodity: Fresh or chilled red meats; Period: Before_2016" role="graphics-symbol" aria-roledescription="point" transform="translate(152.25592307692312,150)" d="M4.743,0A4.743,4.743,0,1,1,-4.743,0A4.743,4.743,0,1,1,4.743,0" fill="#9dbee8" stroke="black" stroke-width="0.3" opacity="0.7"/><path aria-label="Import Value ($B): 21.335; Commodity: Fresh or chilled red meats; Period: After_2016" role="graphics-symbol" aria-roledescription="point" transform="translate(114.88076923076925,150)" d="M4.743,0A4.743,4.743,0,1,1,-4.743,0A4.743,4.743,0,1,1,4.743,0" fill="#dae39f" stroke="black" stroke-width="0.3" opacity="0.7"/><path aria-label="Import Value ($B): 17.4636; Commodity: Bovine animals, live; Period: Before_2016" role="graphics-symbol" aria-roledescription="point" transform="translate(94.03476923076923,16.666666666666657)" d="M4.743,0A4.743,4.743,0,1,1,-4.743,0A4.743,4.743,0,1,1,4.743,0" fill="#9dbee8" stroke="black" stroke-width="0.3" opacity="0.7"/><path aria-label="Import Value ($B): 8.4435; Commodity: Bovine animals, live; Period: After_2016" role="graphics-symbol" aria-roledescription="point" transform="translate(45.465,16.666666666666657)" d="M4.743,0A4.743,4.743,0,1,1,-4.743,0A4.743,4.743,0,1,1,4.743,0" fill="#dae39f" stroke="black" stroke-width="0.3" opacity="0.7"/><path aria-label="Import Value ($B): 33.6243; Commodity: Cereal and bakery foods; Period: Before_2016" role="graphics-symbol" aria-roledescription="point" transform="translate(181.0539230769231,83.33333333333333)" d="M4.743,0A4.743,4.743,0,1,1,-4.743,0A4.743,4.743,0,1,1,4.743,0" fill="#9dbee8" stroke="black" stroke-width="0.3" opacity="0.7"/><path aria-label="Import Value ($B): 38.0404; Commodity: Cereal and bakery foods; Period: After_2016" role="graphics-symbol" aria-roledescription="point" transform="translate(204.83292307692312,83.33333333333333)" d="M4.743,0A4.743,4.743,0,1,1,-4.743,0A4.743,4.743,0,1,1,4.743,0" fill="#dae39f" stroke="black" stroke-width="0.3" opacity="0.7"/><path aria-label="Import Value ($B): 17.2928; Commodity: Bulk grains; Period: Before_2016" role="graphics-symbol" aria-roledescription="point" transform="translate(93.11507692307693,49.99999999999999)" d="M4.743,0A4.743,4.743,0,1,1,-4.743,0A4.743,4.743,0,1,1,4.743,0" fill="#9dbee8" stroke="black" stroke-width="0.3" opacity="0.7"/><path aria-label="Import Value ($B): 9.3499; Commodity: Bulk grains; Period: After_2016" role="graphics-symbol" aria-roledescription="point" transform="translate(50.34561538461538,49.99999999999999)" d="M4.743,0A4.743,4.743,0,1,1,-4.743,0A4.743,4.743,0,1,1,4.743,0" fill="#dae39f" stroke="black" stroke-width="0.3" opacity="0.7"/><path aria-label="Import Value ($B): 6.0599; Commodity: Liquors and liqueurs; Period: Before_2016" role="graphics-symbol" aria-roledescription="point" transform="translate(32.63023076923077,183.33333333333334)" d="M4.743,0A4.743,4.743,0,1,1,-4.743,0A4.743,4.743,0,1,1,4.743,0" fill="#9dbee8" stroke="black" stroke-width="0.3" opacity="0.7"/><path aria-label="Import Value ($B): 3.7713; Commodity: Liquors and liqueurs; Period: After_2016" role="graphics-symbol" aria-roledescription="point" transform="translate(20.307000000000002,183.33333333333334)" d="M4.743,0A4.743,4.743,0,1,1,-4.743,0A4.743,4.743,0,1,1,4.743,0" fill="#dae39f" stroke="black" stroke-width="0.3" opacity="0.7"/></g></g><path class="foreground" aria-hidden="true" d="" display="none"/></g><g transform="translate(377,0)"><path class="background" aria-hidden="true" d="M0.5,0.5h350v300h-350Z" stroke="#ddd"/><g><g class="mark-group role-axis" aria-hidden="true"><g transform="translate(0.5,300.5)"><path class="background" aria-hidden="true" d="M0,0h0v0h0Z" pointer-events="none"/><g><g class="mark-rule role-axis-grid" pointer-events="none"><line transform="translate(0,0)" x2="0" y2="-300" stroke="#ddd" stroke-width="1" opacity="1"/><line transform="translate(54,0)" x2="0" y2="-300" stroke="#ddd" stroke-width="1" opacity="1"/><line transform="translate(108,0)" x2="0" y2="-300" stroke="#ddd" stroke-width="1" opacity="1"/><line transform="translate(162,0)" x2="0" y2="-300" stroke="#ddd" stroke-width="1" opacity="1"/><line transform="translate(215,0)" x2="0" y2="-300" stroke="#ddd" stroke-width="1" opacity="1"/><line transform="translate(269,0)" x2="0" y2="-300" stroke="#ddd" stroke-width="1" opacity="1"/><line transform="translate(323,0)" x2="0" y2="-300" stroke="#ddd" stroke-width="1" opacity="1"/></g></g><path class="foreground" aria-hidden="true" d="" pointer-events="none" display="none"/></g></g><g class="mark-group role-scope child_layer_0_pathgroup" role="graphics-object" aria-roledescription="group mark container"><g transform="translate(0,0)"><path class="background" aria-hidden="true" d="M0,0h350v300h-350Z"/><g><g class="mark-line role-mark child_layer_0_marks" role="graphics-object" aria-roledescription="line mark container"><path aria-label="Import Value ($B): 0.1699; Commodity: Wheat and products; Direction: Increase; Country: MEXICO" role="graphics-symbol" aria-roledescription="line mark" d="M0.915,283.333L1.042,283.333" stroke="#08ec08df" stroke-width="3"/></g></g><path class="foreground" aria-hidden="true" d="" display="none"/></g><g transform="translate(0,0)"><path class="background" aria-hidden="true" d="M0,0h350v300h-350Z"/><g><g class="mark-line role-mark child_layer_0_marks" role="graphics-object" aria-roledescription="line mark container"><path aria-label="Import Value ($B): 9.9328; Commodity: Cereal and bakery foods; Direction: Increase; Country: MEXICO" role="graphics-symbol" aria-roledescription="line mark" d="M53.484,83.333L85.654,83.333" stroke="#08ec08df" stroke-width="3"/></g></g><path class="foreground" aria-hidden="true" d="" display="none"/></g><g transform="translate(0,0)"><path class="background" aria-hidden="true" d="M0,0h350v300h-350Z"/><g><g class="mark-line role-mark child_layer_0_marks" role="graphics-object" aria-roledescription="line mark container"><path aria-label="Import Value ($B): 0.6172; Commodity: Refined vegetable oils; Direction: Increase; Country: MEXICO" role="graphics-symbol" aria-roledescription="line mark" d="M3.323,250L10.186,250" stroke="#08ec08df" stroke-width="3"/></g></g><path class="foreground" aria-hidden="true" d="" display="none"/></g><g transform="translate(0,0)"><path class="background" aria-hidden="true" d="M0,0h350v300h-350Z"/><g><g class="mark-line role-mark child_layer_0_marks" role="graphics-object" aria-roledescription="line mark container"><path aria-label="Import Value ($B): 9.18; Commodity: Bovine animals, live; Direction: Decrease; Country: MEXICO" role="graphics-symbol" aria-roledescription="line mark" d="M49.431,16.667L38.601,16.667" stroke="#e40d0d" stroke-width="3"/></g></g><path class="foreground" aria-hidden="true" d="" display="none"/></g><g transform="translate(0,0)"><path class="background" aria-hidden="true" d="M0,0h350v300h-350Z"/><g><g class="mark-line role-mark child_layer_0_marks" role="graphics-object" aria-roledescription="line mark container"><path aria-label="Import Value ($B): 36.5981; Commodity: Fresh or chilled fruit; Direction: Increase; Country: MEXICO" role="graphics-symbol" aria-roledescription="line mark" d="M197.067,116.667L344.028,116.667" stroke="#08ec08df" stroke-width="3"/></g></g><path class="foreground" aria-hidden="true" d="" display="none"/></g><g transform="translate(0,0)"><path class="background" aria-hidden="true" d="M0,0h350v300h-350Z"/><g><g class="mark-line role-mark child_layer_0_marks" role="graphics-object" aria-roledescription="line mark container"><path aria-label="Import Value ($B): 11.4946; Commodity: Liquors and liqueurs; Direction: Increase; Country: MEXICO" role="graphics-symbol" aria-roledescription="line mark" d="M61.894,183.333L141.332,183.333" stroke="#08ec08df" stroke-width="3"/></g></g><path class="foreground" aria-hidden="true" d="" display="none"/></g><g transform="translate(0,0)"><path class="background" aria-hidden="true" d="M0,0h350v300h-350Z"/><g><g class="mark-line role-mark child_layer_0_marks" role="graphics-object" aria-roledescription="line mark container"><path aria-label="Import Value ($B): 4.6765; Commodity: Fresh or chilled red meats; Direction: Increase; Country: MEXICO" role="graphics-symbol" aria-roledescription="line mark" d="M25.181,150L61.675,150" stroke="#08ec08df" stroke-width="3"/></g></g><path class="foreground" aria-hidden="true" d="" display="none"/></g><g transform="translate(0,0)"><path class="background" aria-hidden="true" d="M0,0h350v300h-350Z"/><g><g class="mark-line role-mark child_layer_0_marks" role="graphics-object" aria-roledescription="line mark container"><path aria-label="Import Value ($B): 28.4119; Commodity: Malt beer; Direction: Increase; Country: MEXICO" role="graphics-symbol" aria-roledescription="line mark" d="M152.987,216.667L200.33,216.667" stroke="#08ec08df" stroke-width="3"/></g></g><path class="foreground" aria-hidden="true" d="" display="none"/></g></g><g class="mark-symbol role-mark child_layer_1_marks" role="graphics-object" aria-roledescription="symbol mark container"><path aria-label="Import Value ($B): 0.1699; Commodity: Wheat and products; Period: Before_2016" role="graphics-symbol" aria-roledescription="point" transform="translate(0.9148461538461538,283.33333333333337)" d="M4.743,0A4.743,4.743,0,1,1,-4.743,0A4.743,4.743,0,1,1,4.743,0" fill="#9dbee8" stroke="black" stroke-width="0.3" opacity="0.7"/><path aria-label="Import Value ($B): 0.1936; Commodity: Wheat and products; Period: After_2016" role="graphics-symbol" aria-roledescription="point" transform="translate(1.0424615384615386,283.33333333333337)" d="M4.743,0A4.743,4.743,0,1,1,-4.743,0A4.743,4.743,0,1,1,4.743,0" fill="#dae39f" stroke="black" stroke-width="0.3" opacity="0.7"/><path aria-label="Import Value ($B): 9.9328; Commodity: Cereal and bakery foods; Period: Before_2016" role="graphics-symbol" aria-roledescription="point" transform="translate(53.48430769230768,83.33333333333333)" d="M4.743,0A4.743,4.743,0,1,1,-4.743,0A4.743,4.743,0,1,1,4.743,0" fill="#9dbee8" stroke="black" stroke-width="0.3" opacity="0.7"/><path aria-label="Import Value ($B): 15.9072; Commodity: Cereal and bakery foods; Period: After_2016" role="graphics-symbol" aria-roledescription="point" transform="translate(85.65415384615385,83.33333333333333)" d="M4.743,0A4.743,4.743,0,1,1,-4.743,0A4.743,4.743,0,1,1,4.743,0" fill="#dae39f" stroke="black" stroke-width="0.3" opacity="0.7"/><path aria-label="Import Value ($B): 0.6172; Commodity: Refined vegetable oils; Period: Before_2016" role="graphics-symbol" aria-roledescription="point" transform="translate(3.3233846153846156,250)" d="M4.743,0A4.743,4.743,0,1,1,-4.743,0A4.743,4.743,0,1,1,4.743,0" fill="#9dbee8" stroke="black" stroke-width="0.3" opacity="0.7"/><path aria-label="Import Value ($B): 1.8917; Commodity: Refined vegetable oils; Period: After_2016" role="graphics-symbol" aria-roledescription="point" transform="translate(10.186076923076923,250)" d="M4.743,0A4.743,4.743,0,1,1,-4.743,0A4.743,4.743,0,1,1,4.743,0" fill="#dae39f" stroke="black" stroke-width="0.3" opacity="0.7"/><path aria-label="Import Value ($B): 9.18; Commodity: Bovine animals, live; Period: Before_2016" role="graphics-symbol" aria-roledescription="point" transform="translate(49.43076923076922,16.666666666666657)" d="M4.743,0A4.743,4.743,0,1,1,-4.743,0A4.743,4.743,0,1,1,4.743,0" fill="#9dbee8" stroke="black" stroke-width="0.3" opacity="0.7"/><path aria-label="Import Value ($B): 7.1687; Commodity: Bovine animals, live; Period: After_2016" role="graphics-symbol" aria-roledescription="point" transform="translate(38.600692307692306,16.666666666666657)" d="M4.743,0A4.743,4.743,0,1,1,-4.743,0A4.743,4.743,0,1,1,4.743,0" fill="#dae39f" stroke="black" stroke-width="0.3" opacity="0.7"/><path aria-label="Import Value ($B): 36.5981; Commodity: Fresh or chilled fruit; Period: Before_2016" role="graphics-symbol" aria-roledescription="point" transform="translate(197.06669230769234,116.66666666666666)" d="M4.743,0A4.743,4.743,0,1,1,-4.743,0A4.743,4.743,0,1,1,4.743,0" fill="#9dbee8" stroke="black" stroke-width="0.3" opacity="0.7"/><path aria-label="Import Value ($B): 63.8909; Commodity: Fresh or chilled fruit; Period: After_2016" role="graphics-symbol" aria-roledescription="point" transform="translate(344.0279230769231,116.66666666666666)" d="M4.743,0A4.743,4.743,0,1,1,-4.743,0A4.743,4.743,0,1,1,4.743,0" fill="#dae39f" stroke="black" stroke-width="0.3" opacity="0.7"/><path aria-label="Import Value ($B): 11.4946; Commodity: Liquors and liqueurs; Period: Before_2016" role="graphics-symbol" aria-roledescription="point" transform="translate(61.894,183.33333333333334)" d="M4.743,0A4.743,4.743,0,1,1,-4.743,0A4.743,4.743,0,1,1,4.743,0" fill="#9dbee8" stroke="black" stroke-width="0.3" opacity="0.7"/><path aria-label="Import Value ($B): 26.2473; Commodity: Liquors and liqueurs; Period: After_2016" role="graphics-symbol" aria-roledescription="point" transform="translate(141.3316153846154,183.33333333333334)" d="M4.743,0A4.743,4.743,0,1,1,-4.743,0A4.743,4.743,0,1,1,4.743,0" fill="#dae39f" stroke="black" stroke-width="0.3" opacity="0.7"/><path aria-label="Import Value ($B): 4.6765; Commodity: Fresh or chilled red meats; Period: Before_2016" role="graphics-symbol" aria-roledescription="point" transform="translate(25.181153846153844,150)" d="M4.743,0A4.743,4.743,0,1,1,-4.743,0A4.743,4.743,0,1,1,4.743,0" fill="#9dbee8" stroke="black" stroke-width="0.3" opacity="0.7"/><path aria-label="Import Value ($B): 11.4539; Commodity: Fresh or chilled red meats; Period: After_2016" role="graphics-symbol" aria-roledescription="point" transform="translate(61.67484615384615,150)" d="M4.743,0A4.743,4.743,0,1,1,-4.743,0A4.743,4.743,0,1,1,4.743,0" fill="#dae39f" stroke="black" stroke-width="0.3" opacity="0.7"/><path aria-label="Import Value ($B): 28.4119; Commodity: Malt beer; Period: Before_2016" role="graphics-symbol" aria-roledescription="point" transform="translate(152.98715384615386,216.66666666666666)" d="M4.743,0A4.743,4.743,0,1,1,-4.743,0A4.743,4.743,0,1,1,4.743,0" fill="#9dbee8" stroke="black" stroke-width="0.3" opacity="0.7"/><path aria-label="Import Value ($B): 37.2041; Commodity: Malt beer; Period: After_2016" role="graphics-symbol" aria-roledescription="point" transform="translate(200.3297692307692,216.66666666666666)" d="M4.743,0A4.743,4.743,0,1,1,-4.743,0A4.743,4.743,0,1,1,4.743,0" fill="#dae39f" stroke="black" stroke-width="0.3" opacity="0.7"/></g></g><path class="foreground" aria-hidden="true" d="" display="none"/></g></g><g class="mark-group role-legend" role="graphics-symbol" aria-roledescription="legend" aria-label="Symbol legend titled 'Change Direction' for stroke color with 2 values: Increase, Decrease"><g transform="translate(746,0)"><path class="background" aria-hidden="true" d="M0,0h92v40h-92Z" pointer-events="none"/><g><g class="mark-group role-legend-entry"><g transform="translate(0,16)"><path class="background" aria-hidden="true" d="M0,0h0v0h0Z" pointer-events="none"/><g><g class="mark-group role-scope" role="graphics-object" aria-roledescription="group mark container"><g transform="translate(0,0)"><path class="background" aria-hidden="true" d="M0,0h58.7978515625v11h-58.7978515625Z" pointer-events="none" opacity="1"/><g><g class="mark-symbol role-legend-symbol" pointer-events="none"><path transform="translate(6,6)" d="M-5,0L5,0" stroke="#08ec08df" stroke-width="1.5" opacity="1"/></g><g class="mark-text role-legend-label" pointer-events="none"><text text-anchor="start" transform="translate(16,9)" font-family="sans-serif" font-size="10px" fill="#000" opacity="1">Increase</text></g></g><path class="foreground" aria-hidden="true" d="" pointer-events="none" display="none"/></g><g transform="translate(0,13)"><path class="background" aria-hidden="true" d="M0,0h58.7978515625v11h-58.7978515625Z" pointer-events="none" opacity="1"/><g><g class="mark-symbol role-legend-symbol" pointer-events="none"><path transform="translate(6,6)" d="M-5,0L5,0" stroke="#e40d0d" stroke-width="1.5" opacity="1"/></g><g class="mark-text role-legend-label" pointer-events="none"><text text-anchor="start" transform="translate(16,9)" font-family="sans-serif" font-size="10px" fill="#000" opacity="1">Decrease</text></g></g><path class="foreground" aria-hidden="true" d="" pointer-events="none" display="none"/></g></g></g><path class="foreground" aria-hidden="true" d="" pointer-events="none" display="none"/></g></g><g class="mark-text role-legend-title" pointer-events="none"><text text-anchor="start" transform="translate(0,9)" font-family="sans-serif" font-size="11px" font-weight="bold" fill="#000" opacity="1">Change Direction</text></g></g><path class="foreground" aria-hidden="true" d="" pointer-events="none" display="none"/></g></g><g class="mark-group role-legend" role="graphics-symbol" aria-roledescription="legend" aria-label="Symbol legend titled 'Time Period' for fill color with 2 values: Before_2016, After_2016"><g transform="translate(746,48)"><path class="background" aria-hidden="true" d="M0,0h74v45h-74Z" pointer-events="none"/><g><g class="mark-group role-legend-entry"><g transform="translate(0,16)"><path class="background" aria-hidden="true" d="M0,0h0v0h0Z" pointer-events="none"/><g><g class="mark-group role-scope" role="graphics-object" aria-roledescription="group mark container"><g transform="translate(0,0)"><path class="background" aria-hidden="true" d="M0,0h73.2705078125v12.5h-73.2705078125Z" pointer-events="none" opacity="1"/><g><g class="mark-symbol role-legend-symbol" pointer-events="none"><path transform="translate(6,6)" d="M5,0A5,5,0,1,1,-5,0A5,5,0,1,1,5,0" fill="#9dbee8" stroke="black" stroke-width="1.5" opacity="0.7"/></g><g class="mark-text role-legend-label" pointer-events="none"><text text-anchor="start" transform="translate(16,9)" font-family="sans-serif" font-size="10px" fill="#000" opacity="1">Before_2016</text></g></g><path class="foreground" aria-hidden="true" d="" pointer-events="none" display="none"/></g><g transform="translate(0,16)"><path class="background" aria-hidden="true" d="M0,0h73.2705078125v12.5h-73.2705078125Z" pointer-events="none" opacity="1"/><g><g class="mark-symbol role-legend-symbol" pointer-events="none"><path transform="translate(6,6)" d="M5,0A5,5,0,1,1,-5,0A5,5,0,1,1,5,0" fill="#dae39f" stroke="black" stroke-width="1.5" opacity="0.7"/></g><g class="mark-text role-legend-label" pointer-events="none"><text text-anchor="start" transform="translate(16,9)" font-family="sans-serif" font-size="10px" fill="#000" opacity="1">After_2016</text></g></g><path class="foreground" aria-hidden="true" d="" pointer-events="none" display="none"/></g></g></g><path class="foreground" aria-hidden="true" d="" pointer-events="none" display="none"/></g></g><g class="mark-text role-legend-title" pointer-events="none"><text text-anchor="start" transform="translate(0,9)" font-family="sans-serif" font-size="11px" font-weight="bold" fill="#000" opacity="1">Time Period</text></g></g><path class="foreground" aria-hidden="true" d="" pointer-events="none" display="none"/></g></g><g class="mark-group role-title"><g transform="translate(-139.6005859375,-38)"><path class="background" aria-hidden="true" d="M0,0h0v0h0Z" pointer-events="none"/><g><g class="mark-text role-title-text" role="graphics-symbol" aria-roledescription="title" aria-label="Title text 'Before vs After 2016: U.S. Food Imports by Commodity and Country'" pointer-events="none"><text text-anchor="start" transform="translate(0,10)" font-family="sans-serif" font-size="13px" font-weight="bold" fill="#000" opacity="1">Before vs After 2016: U.S. Food Imports by Commodity and Country</text></g></g><path class="foreground" aria-hidden="true" d="" pointer-events="none" display="none"/></g></g></g><path class="foreground" aria-hidden="true" d="" display="none"/></g></g></g></svg>