<svg xmlns="http://www.w3.org/2000/svg" xmlns:xlink="http://www.w3.org/1999/xlink" version="1.1" class="marks" width="640" height="391" viewBox="0 0 640 391"><rect width="640" height="391" fill="white"/><g fill="none" stroke-miterlimit="10" transform="translate(39,41)"><g class="mark-group role-frame root" role="graphics-object" aria-roledescription="group mark container"><g transform="translate(0,0)"><path class="background" aria-hidden="true" d="M0.5,0.5h520v300h-520Z" stroke="#ddd"/><g><g class="mark-group role-axis" aria-hidden="true"><g transform="translate(0.5,0.5)"><path class="background" aria-hidden="true" d="M0,0h0v0h0Z" pointer-events="none"/><g><g class="mark-rule role-axis-grid" pointer-events="none"><line transform="translate(0,300)" x2="520" y2="0" stroke="#ddd" stroke-width="1" opacity="1"/><line transform="translate(0,270)" x2="520" y2="0" stroke="#ddd" stroke-width="1" opacity="1"/><line transform="translate(0,240)" x2="520" y2="0" stroke="#ddd" stroke-width="1" opacity="1"/><line transform="translate(0,210)" x2="520" y2="0" stroke="#ddd" stroke-width="1" opacity="1"/><line transform="translate(0,180)" x2="520" y2="0" stroke="#ddd" stroke-width="1" opacity="1"/><line transform="translate(0,150)" x2="520" y2="0" stroke="#ddd" stroke-width="1" opacity="1"/><line transform="translate(0,120)" x2="520" y2="0" stroke="#ddd" stroke-width="1" opacity="1"/><line transform="translate(0,90)" x2="520" y2="0" stroke="#ddd" stroke-width="1" opacity="1"/><line transform="translate(0,60)" x2="520" y2="0" stroke="#ddd" stroke-width="1" opacity="1"/><line transform="translate(0,30)" x2="520" y2="0" stroke="#ddd" stroke-width="1" opacity="1"/><line transform="translate(0,0)" x2="520" y2="0" stroke="#ddd" stroke-width="1" opacity="1"/></g></g><path class="foreground" aria-hidden="true" d="" pointer-events="none" display="none"/></g></g><g class="mark-group role-axis" role="graphics-symbol" aria-roledescription="axis" aria-label="X-axis titled 'Year' for a discrete scale with 26 values: 1999, 2000, 2001, 2002, 2003, ending with 2024"><g transform="translate(0.5,300.5)"><path class="background" aria-hidden="true" d="M0,0h0v0h0Z" pointer-events="none"/><g><g class="mark-rule role-axis-tick" pointer-events="none"><line transform="translate(10,0)" x2="0" y2="5" stroke="#888" stroke-width="1" opacity="1"/><line transform="translate(30,0)" x2="0" y2="5" stroke="#888" stroke-width="1" opacity="1"/><line transform="translate(50,0)" x2="0" y2="5" stroke="#888" stroke-width="1" opacity="1"/><line transform="translate(70,0)" x2="0" y2="5" stroke="#888" stroke-width="1" opacity="1"/><line transform="translate(90,0)" x2="0" y2="5" stroke="#888" stroke-width="1" opacity="1"/><line transform="translate(110,0)" x2="0" y2="5" stroke="#888" stroke-width="1" opacity="1"/><line transform="translate(130,0)" x2="0" y2="5" stroke="#888" stroke-width="1" opacity="1"/><line transform="translate(150,0)" x2="0" y2="5" stroke="#888" stroke-width="1" opacity="1"/><line transform="translate(170,0)" x2="0" y2="5" stroke="#888" stroke-width="1" opacity="1"/><line transform="translate(190,0)" x2="0" y2="5" stroke="#888" stroke-width="1" opacity="1"/><line transform="translate(210,0)" x2="0" y2="5" stroke="#888" stroke-width="1" opacity="1"/><line transform="translate(230,0)" x2="0" y2="5" stroke="#888" stroke-width="1" opacity="1"/><line transform="translate(250,0)" x2="0" y2="5" stroke="#888" stroke-width="1" opacity="1"/><line transform="translate(270,0)" x2="0" y2="5" stroke="#888" stroke-width="1" opacity="1"/><line transform="translate(290,0)" x2="0" y2="5" stroke="#888" stroke-width="1" opacity="1"/><line transform="translate(310,0)" x2="0" y2="5" stroke="#888" stroke-width="1" opacity="1"/><line transform="translate(330,0)" x2="0" y2="5" stroke="#888" stroke-width="1" opacity="1"/><line transform="translate(350,0)" x2="0" y2="5" stroke="#888" stroke-width="1" opacity="1"/><line transform="translate(370,0)" x2="0" y2="5" stroke="#888" stroke-width="1" opacity="1"/><line transform="translate(390,0)" x2="0" y2="5" stroke="#888" stroke-width="1" opacity="1"/><line transform="translate(410,0)" x2="0" y2="5" stroke="#888" stroke-width="1" opacity="1"/><line transform="translate(430,0)" x2="0" y2="5" stroke="#888" stroke-width="1" opacity="1"/><line transform="translate(450,0)" x2="0" y2="5" stroke="#888" stroke-width="1" opacity="1"/><line transform="translate(470,0)" x2="0" y2="5" stroke="#888" stroke-width="1" opacity="1"/><line transform="translate(490,0)" x2="0" y2="5" stroke="#888" stroke-width="1" opacity="1"/><line transform="translate(510,0)" x2="0" y2="5" stroke="#888" stroke-width="1" opacity="1"/></g><g class="mark-text role-axis-label" pointer-events="none"><text text-anchor="end" transform="translate(9.5,7) rotate(270) translate(0,3)" font-family="sans-serif" font-size="10px" fill="#000" opacity="1">1999</text><text text-anchor="end" transform="translate(29.5,7) rotate(270) translate(0,3)" font-family="sans-serif" font-size="10px" fill="#000" opacity="1">2000</text><text text-anchor="end" transform="translate(49.5,7) rotate(270) translate(0,3)" font-family="sans-serif" font-size="10px" fill="#000" opacity="1">2001</text><text text-anchor="end" transform="translate(69.5,7) rotate(270) translate(0,3)" font-family="sans-serif" font-size="10px" fill="#000" opacity="1">2002</text><text text-anchor="end" transform="translate(89.5,7) rotate(270) translate(0,3)" font-family="sans-serif" font-size="10px" fill="#000" opacity="1">2003</text><text text-anchor="end" transform="translate(109.5,7) rotate(270) translate(0,3)" font-family="sans-serif" font-size="10px" fill="#000" opacity="1">2004</text><text text-anchor="end" transform="translate(129.5,7) rotate(270) translate(0,3)" font-family="sans-serif" font-size="10px" fill="#000" opacity="1">2005</text><text text-anchor="end" transform="translate(149.5,7) rotate(270) translate(0,3)" font-family="sans-serif" font-size="10px" fill="#000" opacity="1">2006</text><text text-anchor="end" transform="translate(169.5,7) rotate(270) translate(0,3)" font-family="sans-serif" font-size="10px" fill="#000" opacity="1">2007</text><text text-anchor="end" transform="translate(189.5,7) rotate(270) translate(0,3)" font-family="sans-serif" font-size="10px" fill="#000" opacity="1">2008</text><text text-anchor="end" transform="translate(209.5,7) rotate(270) translate(0,3)" font-family="sans-serif" font-size="10px" fill="#000" opacity="1">2009</text><text text-anchor="end" transform="translate(229.5,7) rotate(270) translate(0,3)" font-family="sans-serif" font-size="10px" fill="#000" opacity="1">2010</text><text text-anchor="end" transform="translate(249.5,7) rotate(270) translate(0,3)" font-family="sans-serif" font-size="10px" fill="#000" opacity="1">2011</text><text text-anchor="end" transform="translate(269.5,7) rotate(270) translate(0,3)" font-family="sans-serif" font-size="10px" fill="#000" opacity="1">2012</text><text text-anchor="end" transform="translate(289.5,7) rotate(270) translate(0,3)" font-family="sans-serif" font-size="10px" fill="#000" opacity="1">2013</text><text text-anchor="end" transform="translate(309.5,7) rotate(270) translate(0,3)" font-family="sans-serif" font-size="10px" fill="#000" opacity="1">2014</text><text text-anchor="end" transform="translate(329.5,7) rotate(270) translate(0,3)" font-family="sans-serif" font-size="10px" fill="#000" opacity="1">2015</text><text text-anchor="end" transform="translate(349.5,7) rotate(270) translate(0,3)" font-family="sans-serif" font-size="10px" fill="#000" opacity="1">2016</text><text text-anchor="end" transform="translate(369.5,7) rotate(270) translate(0,3)" font-family="sans-serif" font-size="10px" fill="#000" opacity="1">2017</text><text text-anchor="end" transform="translate(389.5,7) rotate(270) translate(0,3)" font-family="sans-serif" font-size="10px" fill="#000" opacity="1">2018</text><text text-anchor="end" transform="translate(409.5,7) rotate(270) translate(0,3)" font-family="sans-serif" font-size="10px" fill="#000" opacity="1">2019</text><text text-anchor="end" transform="translate(429.5,7) rotate(270) translate(0,3)" font-family="sans-serif" font-size="10px" fill="#000" opacity="1">2020</text><text text-anchor="end" transform="translate(449.5,7) rotate(270) translate(0,3)" font-family="sans-serif" font-size="10px" fill="#000" opacity="1">2021</text><text text-anchor="end" transform="translate(469.5,7) rotate(270) translate(0,3)" font-family="sans-serif" font-size="10px" fill="#000" opacity="1">2022</text><text text-anchor="end" transform="translate(489.5,7) rotate(270) translate(0,3)" font-family="sans-serif" font-size="10px" fill="#000" opacity="1">2023</text><text text-anchor="end" transform="translate(509.5,7) rotate(270) translate(0,3)" font-family="sans-serif" font-size="10px" fill="#000" opacity="1">2024</text></g><g class="mark-rule role-axis-domain" pointer-events="none"><line transform="translate(0,0)" x2="520" y2="0" stroke="#888" stroke-width="1" opacity="1"/></g><g class="mark-text role-axis-title" pointer-events="none"><text text-anchor="middle" transform="translate(260,42.24609375)" font-family="sans-serif" font-size="11px" font-weight="bold" fill="#000" opacity="1">Year</text></g></g><path class="foreground" aria-hidden="true" d="" pointer-events="none" display="none"/></g></g><g class="mark-group role-axis" role="graphics-symbol" aria-roledescription="axis" aria-label="Y-axis titled 'Total Import Value (Billion $)' for a linear scale with values from 0 to 50"><g transform="translate(0.5,0.5)"><path class="background" aria-hidden="true" d="M0,0h0v0h0Z" pointer-events="none"/><g><g class="mark-rule role-axis-tick" pointer-events="none"><line transform="translate(0,300)" x2="-5" y2="0" stroke="#888" stroke-width="1" opacity="1"/><line transform="translate(0,270)" x2="-5" y2="0" stroke="#888" stroke-width="1" opacity="1"/><line transform="translate(0,240)" x2="-5" y2="0" stroke="#888" stroke-width="1" opacity="1"/><line transform="translate(0,210)" x2="-5" y2="0" stroke="#888" stroke-width="1" opacity="1"/><line transform="translate(0,180)" x2="-5" y2="0" stroke="#888" stroke-width="1" opacity="1"/><line transform="translate(0,150)" x2="-5" y2="0" stroke="#888" stroke-width="1" opacity="1"/><line transform="translate(0,120)" x2="-5" y2="0" stroke="#888" stroke-width="1" opacity="1"/><line transform="translate(0,90)" x2="-5" y2="0" stroke="#888" stroke-width="1" opacity="1"/><line transform="translate(0,60)" x2="-5" y2="0" stroke="#888" stroke-width="1" opacity="1"/><line transform="translate(0,30)" x2="-5" y2="0" stroke="#888" stroke-width="1" opacity="1"/><line transform="translate(0,0)" x2="-5" y2="0" stroke="#888" stroke-width="1" opacity="1"/></g><g class="mark-text role-axis-label" pointer-events="none"><text text-anchor="end" transform="translate(-7,303)" font-family="sans-serif" font-size="10px" fill="#000" opacity="1">0</text><text text-anchor="end" transform="translate(-7,273)" font-family="sans-serif" font-size="10px" fill="#000" opacity="1">5</text><text text-anchor="end" transform="translate(-7,243)" font-family="sans-serif" font-size="10px" fill="#000" opacity="1">10</text><text text-anchor="end" transform="translate(-7,213)" font-family="sans-serif" font-size="10px" fill="#000" opacity="1">15</text><text text-anchor="end" transform="translate(-7,183)" font-family="sans-serif" font-size="10px" fill="#000" opacity="1">20</text><text text-anchor="end" transform="translate(-7,153)" font-family="sans-serif" font-size="10px" fill="#000" opacity="1">25</text><text text-anchor="end" transform="translate(-7,123)" font-family="sans-serif" font-size="10px" fill="#000" opacity="1">30</text><text text-anchor="end" transform="translate(-7,93.00000000000001)" font-family="sans-serif" font-size="10px" fill="#000" opacity="1">35</text><text text-anchor="end" transform="translate(-7,62.999999999999986)" font-family="sans-serif" font-size="10px" fill="#000" opacity="1">40</text><text text-anchor="end" transform="translate(-7,32.99999999999999)" font-family="sans-serif" font-size="10px" fill="#000" opacity="1">45</text><text text-anchor="end" transform="translate(-7,3)" font-family="sans-serif" font-size="10px" fill="#000" opacity="1">50</text></g><g class="mark-rule role-axis-domain" pointer-events="none"><line transform="translate(0,300)" x2="0" y2="-300" stroke="#888" stroke-width="1" opacity="1"/></g><g class="mark-text role-axis-title" pointer-events="none"><text text-anchor="middle" transform="translate(-22.123046875,150) rotate(-90) translate(0,-2)" font-family="sans-serif" font-size="11px" font-weight="bold" fill="#000" opacity="1">Total Import Value (Billion $)</text></g></g><path class="foreground" aria-hidden="true" d="" pointer-events="none" display="none"/></g></g><g class="mark-group role-scope layer_0_layer_0_pathgroup" role="graphics-object" aria-roledescription="group mark container"><g transform="translate(0,0)"><path class="background" aria-hidden="true" d="M0,0h520v300h-520Z"/><g><g class="mark-line role-mark layer_0_layer_0_marks" role="graphics-object" aria-roledescription="line mark container"><path aria-label="Year: 1999; Total Import Value (Billion $): 9.3162; Country: CANADA" role="graphics-symbol" aria-roledescription="line mark" d="M10,244.103L30,239.153L50,231.928L70,228.244L90,228.638L110,222.017L130,216.65L150,209.246L170,198.292L190,179.093L210,201.295L230,192.248L250,177.067L270,171.737L290,161.42L310,153.887L330,160.532L350,161.122L370,153.937L390,149.885L410,147.676L430,145.291L450,102.794L470,71.81L490,60.553L510,51.929" stroke="#C8102E" stroke-width="2"/></g></g><path class="foreground" aria-hidden="true" d="" display="none"/></g><g transform="translate(0,0)"><path class="background" aria-hidden="true" d="M0,0h520v300h-520Z"/><g><g class="mark-line role-mark layer_0_layer_0_marks" role="graphics-object" aria-roledescription="line mark container"><path aria-label="Year: 1999; Total Import Value (Billion $): 4.9957; Country: MEXICO" role="graphics-symbol" aria-roledescription="line mark" d="M10,270.026L30,267.706L50,265.346L70,264.006L90,258.846L110,253.172L130,246.45L150,239.996L170,235.172L190,231.119L210,228.577L230,215.366L250,202.517L270,199.079L290,190.039L310,178.523L330,167.028L350,155.164L370,144.001L390,134.451L410,117.738L430,103.463L450,73.34L470,43.75L490,29.637L510,11.078" stroke="#006847" stroke-width="2"/></g></g><path class="foreground" aria-hidden="true" d="" display="none"/></g></g><g class="mark-symbol role-mark layer_0_layer_1_marks" role="graphics-object" aria-roledescription="symbol mark container"><path aria-label="Year: 1999; Total Import Value (Billion $): 9.3162; Country: CANADA" role="graphics-symbol" aria-roledescription="point" transform="translate(10,244.10279999999997)" d="M2.739,0A2.739,2.739,0,1,1,-2.739,0A2.739,2.739,0,1,1,2.739,0" fill="#C8102E" stroke-width="2" opacity="1"/><path aria-label="Year: 2000; Total Import Value (Billion $): 10.1412; Country: CANADA" role="graphics-symbol" aria-roledescription="point" transform="translate(30,239.15280000000004)" d="M2.739,0A2.739,2.739,0,1,1,-2.739,0A2.739,2.739,0,1,1,2.739,0" fill="#C8102E" stroke-width="2" opacity="1"/><path aria-label="Year: 2001; Total Import Value (Billion $): 11.3454; Country: CANADA" role="graphics-symbol" aria-roledescription="point" transform="translate(50,231.9276)" d="M2.739,0A2.739,2.739,0,1,1,-2.739,0A2.739,2.739,0,1,1,2.739,0" fill="#C8102E" stroke-width="2" opacity="1"/><path aria-label="Year: 2002; Total Import Value (Billion $): 11.9594; Country: CANADA" role="graphics-symbol" aria-roledescription="point" transform="translate(70,228.24360000000001)" d="M2.739,0A2.739,2.739,0,1,1,-2.739,0A2.739,2.739,0,1,1,2.739,0" fill="#C8102E" stroke-width="2" opacity="1"/><path aria-label="Year: 2003; Total Import Value (Billion $): 11.8936; Country: CANADA" role="graphics-symbol" aria-roledescription="point" transform="translate(90,228.63839999999996)" d="M2.739,0A2.739,2.739,0,1,1,-2.739,0A2.739,2.739,0,1,1,2.739,0" fill="#C8102E" stroke-width="2" opacity="1"/><path aria-label="Year: 2004; Total Import Value (Billion $): 12.9971; Country: CANADA" role="graphics-symbol" aria-roledescription="point" transform="translate(110,222.0174)" d="M2.739,0A2.739,2.739,0,1,1,-2.739,0A2.739,2.739,0,1,1,2.739,0" fill="#C8102E" stroke-width="2" opacity="1"/><path aria-label="Year: 2005; Total Import Value (Billion $): 13.8916; Country: CANADA" role="graphics-symbol" aria-roledescription="point" transform="translate(130,216.6504)" d="M2.739,0A2.739,2.739,0,1,1,-2.739,0A2.739,2.739,0,1,1,2.739,0" fill="#C8102E" stroke-width="2" opacity="1"/><path aria-label="Year: 2006; Total Import Value (Billion $): 15.1257; Country: CANADA" role="graphics-symbol" aria-roledescription="point" transform="translate(150,209.2458)" d="M2.739,0A2.739,2.739,0,1,1,-2.739,0A2.739,2.739,0,1,1,2.739,0" fill="#C8102E" stroke-width="2" opacity="1"/><path aria-label="Year: 2007; Total Import Value (Billion $): 16.9514; Country: CANADA" role="graphics-symbol" aria-roledescription="point" transform="translate(170,198.2916)" d="M2.739,0A2.739,2.739,0,1,1,-2.739,0A2.739,2.739,0,1,1,2.739,0" fill="#C8102E" stroke-width="2" opacity="1"/><path aria-label="Year: 2008; Total Import Value (Billion $): 20.1511; Country: CANADA" role="graphics-symbol" aria-roledescription="point" transform="translate(190,179.0934)" d="M2.739,0A2.739,2.739,0,1,1,-2.739,0A2.739,2.739,0,1,1,2.739,0" fill="#C8102E" stroke-width="2" opacity="1"/><path aria-label="Year: 2009; Total Import Value (Billion $): 16.4508; Country: CANADA" role="graphics-symbol" aria-roledescription="point" transform="translate(210,201.2952)" d="M2.739,0A2.739,2.739,0,1,1,-2.739,0A2.739,2.739,0,1,1,2.739,0" fill="#C8102E" stroke-width="2" opacity="1"/><path aria-label="Year: 2010; Total Import Value (Billion $): 17.9586; Country: CANADA" role="graphics-symbol" aria-roledescription="point" transform="translate(230,192.24839999999998)" d="M2.739,0A2.739,2.739,0,1,1,-2.739,0A2.739,2.739,0,1,1,2.739,0" fill="#C8102E" stroke-width="2" opacity="1"/><path aria-label="Year: 2011; Total Import Value (Billion $): 20.4888; Country: CANADA" role="graphics-symbol" aria-roledescription="point" transform="translate(250,177.06719999999999)" d="M2.739,0A2.739,2.739,0,1,1,-2.739,0A2.739,2.739,0,1,1,2.739,0" fill="#C8102E" stroke-width="2" opacity="1"/><path aria-label="Year: 2012; Total Import Value (Billion $): 21.3771; Country: CANADA" role="graphics-symbol" aria-roledescription="point" transform="translate(270,171.73739999999995)" d="M2.739,0A2.739,2.739,0,1,1,-2.739,0A2.739,2.739,0,1,1,2.739,0" fill="#C8102E" stroke-width="2" opacity="1"/><path aria-label="Year: 2013; Total Import Value (Billion $): 23.0967; Country: CANADA" role="graphics-symbol" aria-roledescription="point" transform="translate(290,161.4198)" d="M2.739,0A2.739,2.739,0,1,1,-2.739,0A2.739,2.739,0,1,1,2.739,0" fill="#C8102E" stroke-width="2" opacity="1"/><path aria-label="Year: 2014; Total Import Value (Billion $): 24.3522; Country: CANADA" role="graphics-symbol" aria-roledescription="point" transform="translate(310,153.8868)" d="M2.739,0A2.739,2.739,0,1,1,-2.739,0A2.739,2.739,0,1,1,2.739,0" fill="#C8102E" stroke-width="2" opacity="1"/><path aria-label="Year: 2015; Total Import Value (Billion $): 23.2446; Country: CANADA" role="graphics-symbol" aria-roledescription="point" transform="translate(330,160.5324)" d="M2.739,0A2.739,2.739,0,1,1,-2.739,0A2.739,2.739,0,1,1,2.739,0" fill="#C8102E" stroke-width="2" opacity="1"/><path aria-label="Year: 2016; Total Import Value (Billion $): 23.1464; Country: CANADA" role="graphics-symbol" aria-roledescription="point" transform="translate(350,161.1216)" d="M2.739,0A2.739,2.739,0,1,1,-2.739,0A2.739,2.739,0,1,1,2.739,0" fill="#C8102E" stroke-width="2" opacity="1"/><path aria-label="Year: 2017; Total Import Value (Billion $): 24.3438; Country: CANADA" role="graphics-symbol" aria-roledescription="point" transform="translate(370,153.93719999999996)" d="M2.739,0A2.739,2.739,0,1,1,-2.739,0A2.739,2.739,0,1,1,2.739,0" fill="#C8102E" stroke-width="2" opacity="1"/><path aria-label="Year: 2018; Total Import Value (Billion $): 25.0191; Country: CANADA" role="graphics-symbol" aria-roledescription="point" transform="translate(390,149.8854)" d="M2.739,0A2.739,2.739,0,1,1,-2.739,0A2.739,2.739,0,1,1,2.739,0" fill="#C8102E" stroke-width="2" opacity="1"/><path aria-label="Year: 2019; Total Import Value (Billion $): 25.3874; Country: CANADA" role="graphics-symbol" aria-roledescription="point" transform="translate(410,147.67559999999995)" d="M2.739,0A2.739,2.739,0,1,1,-2.739,0A2.739,2.739,0,1,1,2.739,0" fill="#C8102E" stroke-width="2" opacity="1"/><path aria-label="Year: 2020; Total Import Value (Billion $): 25.7848; Country: CANADA" role="graphics-symbol" aria-roledescription="point" transform="translate(430,145.29120000000006)" d="M2.739,0A2.739,2.739,0,1,1,-2.739,0A2.739,2.739,0,1,1,2.739,0" fill="#C8102E" stroke-width="2" opacity="1"/><path aria-label="Year: 2021; Total Import Value (Billion $): 32.8676; Country: CANADA" role="graphics-symbol" aria-roledescription="point" transform="translate(450,102.79439999999998)" d="M2.739,0A2.739,2.739,0,1,1,-2.739,0A2.739,2.739,0,1,1,2.739,0" fill="#C8102E" stroke-width="2" opacity="1"/><path aria-label="Year: 2022; Total Import Value (Billion $): 38.0316; Country: CANADA" role="graphics-symbol" aria-roledescription="point" transform="translate(470,71.81039999999994)" d="M2.739,0A2.739,2.739,0,1,1,-2.739,0A2.739,2.739,0,1,1,2.739,0" fill="#C8102E" stroke-width="2" opacity="1"/><path aria-label="Year: 2023; Total Import Value (Billion $): 39.9078; Country: CANADA" role="graphics-symbol" aria-roledescription="point" transform="translate(490,60.553200000000075)" d="M2.739,0A2.739,2.739,0,1,1,-2.739,0A2.739,2.739,0,1,1,2.739,0" fill="#C8102E" stroke-width="2" opacity="1"/><path aria-label="Year: 2024; Total Import Value (Billion $): 41.3452; Country: CANADA" role="graphics-symbol" aria-roledescription="point" transform="translate(510,51.92880000000004)" d="M2.739,0A2.739,2.739,0,1,1,-2.739,0A2.739,2.739,0,1,1,2.739,0" fill="#C8102E" stroke-width="2" opacity="1"/><path aria-label="Year: 1999; Total Import Value (Billion $): 4.9957; Country: MEXICO" role="graphics-symbol" aria-roledescription="point" transform="translate(10,270.0258)" d="M2.739,0A2.739,2.739,0,1,1,-2.739,0A2.739,2.739,0,1,1,2.739,0" fill="#006847" stroke-width="2" opacity="1"/><path aria-label="Year: 2000; Total Import Value (Billion $): 5.3824; Country: MEXICO" role="graphics-symbol" aria-roledescription="point" transform="translate(30,267.7056)" d="M2.739,0A2.739,2.739,0,1,1,-2.739,0A2.739,2.739,0,1,1,2.739,0" fill="#006847" stroke-width="2" opacity="1"/><path aria-label="Year: 2001; Total Import Value (Billion $): 5.7757; Country: MEXICO" role="graphics-symbol" aria-roledescription="point" transform="translate(50,265.3458)" d="M2.739,0A2.739,2.739,0,1,1,-2.739,0A2.739,2.739,0,1,1,2.739,0" fill="#006847" stroke-width="2" opacity="1"/><path aria-label="Year: 2002; Total Import Value (Billion $): 5.999; Country: MEXICO" role="graphics-symbol" aria-roledescription="point" transform="translate(70,264.00600000000003)" d="M2.739,0A2.739,2.739,0,1,1,-2.739,0A2.739,2.739,0,1,1,2.739,0" fill="#006847" stroke-width="2" opacity="1"/><path aria-label="Year: 2003; Total Import Value (Billion $): 6.859; Country: MEXICO" role="graphics-symbol" aria-roledescription="point" transform="translate(90,258.846)" d="M2.739,0A2.739,2.739,0,1,1,-2.739,0A2.739,2.739,0,1,1,2.739,0" fill="#006847" stroke-width="2" opacity="1"/><path aria-label="Year: 2004; Total Import Value (Billion $): 7.8047; Country: MEXICO" role="graphics-symbol" aria-roledescription="point" transform="translate(110,253.17180000000002)" d="M2.739,0A2.739,2.739,0,1,1,-2.739,0A2.739,2.739,0,1,1,2.739,0" fill="#006847" stroke-width="2" opacity="1"/><path aria-label="Year: 2005; Total Import Value (Billion $): 8.925; Country: MEXICO" role="graphics-symbol" aria-roledescription="point" transform="translate(130,246.45)" d="M2.739,0A2.739,2.739,0,1,1,-2.739,0A2.739,2.739,0,1,1,2.739,0" fill="#006847" stroke-width="2" opacity="1"/><path aria-label="Year: 2006; Total Import Value (Billion $): 10.0006; Country: MEXICO" role="graphics-symbol" aria-roledescription="point" transform="translate(150,239.99640000000002)" d="M2.739,0A2.739,2.739,0,1,1,-2.739,0A2.739,2.739,0,1,1,2.739,0" fill="#006847" stroke-width="2" opacity="1"/><path aria-label="Year: 2007; Total Import Value (Billion $): 10.8047; Country: MEXICO" role="graphics-symbol" aria-roledescription="point" transform="translate(170,235.17180000000002)" d="M2.739,0A2.739,2.739,0,1,1,-2.739,0A2.739,2.739,0,1,1,2.739,0" fill="#006847" stroke-width="2" opacity="1"/><path aria-label="Year: 2008; Total Import Value (Billion $): 11.4802; Country: MEXICO" role="graphics-symbol" aria-roledescription="point" transform="translate(190,231.1188)" d="M2.739,0A2.739,2.739,0,1,1,-2.739,0A2.739,2.739,0,1,1,2.739,0" fill="#006847" stroke-width="2" opacity="1"/><path aria-label="Year: 2009; Total Import Value (Billion $): 11.9039; Country: MEXICO" role="graphics-symbol" aria-roledescription="point" transform="translate(210,228.57659999999998)" d="M2.739,0A2.739,2.739,0,1,1,-2.739,0A2.739,2.739,0,1,1,2.739,0" fill="#006847" stroke-width="2" opacity="1"/><path aria-label="Year: 2010; Total Import Value (Billion $): 14.1057; Country: MEXICO" role="graphics-symbol" aria-roledescription="point" transform="translate(230,215.3658)" d="M2.739,0A2.739,2.739,0,1,1,-2.739,0A2.739,2.739,0,1,1,2.739,0" fill="#006847" stroke-width="2" opacity="1"/><path aria-label="Year: 2011; Total Import Value (Billion $): 16.2471; Country: MEXICO" role="graphics-symbol" aria-roledescription="point" transform="translate(250,202.51739999999998)" d="M2.739,0A2.739,2.739,0,1,1,-2.739,0A2.739,2.739,0,1,1,2.739,0" fill="#006847" stroke-width="2" opacity="1"/><path aria-label="Year: 2012; Total Import Value (Billion $): 16.8202; Country: MEXICO" role="graphics-symbol" aria-roledescription="point" transform="translate(270,199.07879999999994)" d="M2.739,0A2.739,2.739,0,1,1,-2.739,0A2.739,2.739,0,1,1,2.739,0" fill="#006847" stroke-width="2" opacity="1"/><path aria-label="Year: 2013; Total Import Value (Billion $): 18.3268; Country: MEXICO" role="graphics-symbol" aria-roledescription="point" transform="translate(290,190.0392)" d="M2.739,0A2.739,2.739,0,1,1,-2.739,0A2.739,2.739,0,1,1,2.739,0" fill="#006847" stroke-width="2" opacity="1"/><path aria-label="Year: 2014; Total Import Value (Billion $): 20.2461; Country: MEXICO" role="graphics-symbol" aria-roledescription="point" transform="translate(310,178.52339999999992)" d="M2.739,0A2.739,2.739,0,1,1,-2.739,0A2.739,2.739,0,1,1,2.739,0" fill="#006847" stroke-width="2" opacity="1"/><path aria-label="Year: 2015; Total Import Value (Billion $): 22.162; Country: MEXICO" role="graphics-symbol" aria-roledescription="point" transform="translate(330,167.02799999999996)" d="M2.739,0A2.739,2.739,0,1,1,-2.739,0A2.739,2.739,0,1,1,2.739,0" fill="#006847" stroke-width="2" opacity="1"/><path aria-label="Year: 2016; Total Import Value (Billion $): 24.1394; Country: MEXICO" role="graphics-symbol" aria-roledescription="point" transform="translate(350,155.1636)" d="M2.739,0A2.739,2.739,0,1,1,-2.739,0A2.739,2.739,0,1,1,2.739,0" fill="#006847" stroke-width="2" opacity="1"/><path aria-label="Year: 2017; Total Import Value (Billion $): 25.9999; Country: MEXICO" role="graphics-symbol" aria-roledescription="point" transform="translate(370,144.0006)" d="M2.739,0A2.739,2.739,0,1,1,-2.739,0A2.739,2.739,0,1,1,2.739,0" fill="#006847" stroke-width="2" opacity="1"/><path aria-label="Year: 2018; Total Import Value (Billion $): 27.5915; Country: MEXICO" role="graphics-symbol" aria-roledescription="point" transform="translate(390,134.45100000000002)" d="M2.739,0A2.739,2.739,0,1,1,-2.739,0A2.739,2.739,0,1,1,2.739,0" fill="#006847" stroke-width="2" opacity="1"/><path aria-label="Year: 2019; Total Import Value (Billion $): 30.377; Country: MEXICO" role="graphics-symbol" aria-roledescription="point" transform="translate(410,117.73799999999997)" d="M2.739,0A2.739,2.739,0,1,1,-2.739,0A2.739,2.739,0,1,1,2.739,0" fill="#006847" stroke-width="2" opacity="1"/><path aria-label="Year: 2020; Total Import Value (Billion $): 32.7562; Country: MEXICO" role="graphics-symbol" aria-roledescription="point" transform="translate(430,103.46280000000006)" d="M2.739,0A2.739,2.739,0,1,1,-2.739,0A2.739,2.739,0,1,1,2.739,0" fill="#006847" stroke-width="2" opacity="1"/><path aria-label="Year: 2021; Total Import Value (Billion $): 37.7767; Country: MEXICO" role="graphics-symbol" aria-roledescription="point" transform="translate(450,73.33979999999995)" d="M2.739,0A2.739,2.739,0,1,1,-2.739,0A2.739,2.739,0,1,1,2.739,0" fill="#006847" stroke-width="2" opacity="1"/><path aria-label="Year: 2022; Total Import Value (Billion $): 42.7084; Country: MEXICO" role="graphics-symbol" aria-roledescription="point" transform="translate(470,43.74960000000002)" d="M2.739,0A2.739,2.739,0,1,1,-2.739,0A2.739,2.739,0,1,1,2.739,0" fill="#006847" stroke-width="2" opacity="1"/><path aria-label="Year: 2023; Total Import Value (Billion $): 45.0605; Country: MEXICO" role="graphics-symbol" aria-roledescription="point" transform="translate(490,29.63699999999998)" d="M2.739,0A2.739,2.739,0,1,1,-2.739,0A2.739,2.739,0,1,1,2.739,0" fill="#006847" stroke-width="2" opacity="1"/><path aria-label="Year: 2024; Total Import Value (Billion $): 48.1537; Country: MEXICO" role="graphics-symbol" aria-roledescription="point" transform="translate(510,11.077799999999938)" d="M2.739,0A2.739,2.739,0,1,1,-2.739,0A2.739,2.739,0,1,1,2.739,0" fill="#006847" stroke-width="2" opacity="1"/></g><g class="mark-rule role-mark layer_1_marks" role="graphics-object" aria-roledescription="rule mark container"><line aria-label="YearNum: 2016" role="graphics-symbol" aria-roledescription="rule mark" transform="translate(350,0)" x2="0" y2="300" stroke="gray"/></g><g class="mark-group role-legend" role="graphics-symbol" aria-roledescription="legend" aria-label="Symbol legend titled 'Country' for fill color and stroke color with 2 values: CANADA, MEXICO"><g transform="translate(538,0)"><path class="background" aria-hidden="true" d="M0,0h58v45h-58Z" pointer-events="none"/><g><g class="mark-group role-legend-entry"><g transform="translate(0,16)"><path class="background" aria-hidden="true" d="M0,0h0v0h0Z" pointer-events="none"/><g><g class="mark-group role-scope" role="graphics-object" aria-roledescription="group mark container"><g transform="translate(0,0)"><path class="background" aria-hidden="true" d="M0,0h57.6748046875v12.5h-57.6748046875Z" pointer-events="none" opacity="1"/><g><g class="mark-symbol role-legend-symbol" pointer-events="none"><path transform="translate(6,6)" d="M5,0A5,5,0,1,1,-5,0A5,5,0,1,1,5,0" fill="#C8102E" stroke="#C8102E" stroke-width="1.5" opacity="1"/></g><g class="mark-text role-legend-label" pointer-events="none"><text text-anchor="start" transform="translate(16,9)" font-family="sans-serif" font-size="10px" fill="#000" opacity="1">CANADA</text></g></g><path class="foreground" aria-hidden="true" d="" pointer-events="none" display="none"/></g><g transform="translate(0,16)"><path class="background" aria-hidden="true" d="M0,0h57.6748046875v12.5h-57.6748046875Z" pointer-events="none" opacity="1"/><g><g class="mark-symbol role-legend-symbol" pointer-events="none"><path transform="translate(6,6)" d="M5,0A5,5,0,1,1,-5,0A5,5,0,1,1,5,0" fill="#006847" stroke="#006847" stroke-width="1.5" opacity="1"/></g><g class="mark-text role-legend-label" pointer-events="none"><text text-anchor="start" transform="translate(16,9)" font-family="sans-serif" font-size="10px" fill="#000" opacity="1">MEXICO</text></g></g><path class="foreground" aria-hidden="true" d="" pointer-events="none" display="none"/></g></g></g><path class="foreground" aria-hidden="true" d="" pointer-events="none" display="none"/></g></g><g class="mark-text role-legend-title" pointer-events="none"><text text-anchor="start" transform="translate(0,9)" font-family="sans-serif" font-size="11px" font-weight="bold" fill="#000" opacity="1">Country</text></g></g><path class="foreground" aria-hidden="true" d="" pointer-events="none" display="none"/></g></g><g class="mark-group role-title"><g transform="translate(260,-36)"><path class="background" aria-hidden="true" d="M0,0h0v0h0Z" pointer-events="none"/><g><g class="mark-text role-title-text" role="graphics-symbol" aria-roledescription="title" aria-label="Title text 'Canada vs Mexico: U.S. Food Import Trends Over Time (1999 - 2024)'" pointer-events="none"><text text-anchor="middle" transform="translate(0,10)" font-family="sans-serif" font-size="13px" font-weight="bold" fill="#000" opacity="1">Canada vs Mexico: U.S. Food Import Trends Over Time (1999 - 2024)</text></g><g class="mark-text role-title-subtitle" role="graphics-symbol" aria-roledescription="subtitle" aria-label="Subtitle text 'Values adjusted for inflation using U.S. CPI (base year = 2024)'" pointer-events="none"><text text-anchor="middle" transform="translate(0,25)" font-family="sans-serif" font-size="12px" fill="#000" opacity="1">Values adjusted for inflation using U.S. CPI (base year = 2024)</text></g></g><path class="foreground" aria-hidden="true" d="" pointer-events="none" display="none"/></g></g></g><path class="foreground" aria-hidden="true" d="" display="none"/></g></g></g></svg>